# xmcd
#
# Track frame offsets: 
#        150
#        21138
#        44048
#        66283
#        90169
#        112062
#        138016
#        161839
#        186080
#        216688
#
# Disc length: 3197 seconds
#
# Revision: 0
# Processed by: cddbd v1.5.2PL0 Copyright (c) Steve Scherf et al.
# Submitted via: ExactAudioCopy v1.0b3
#
DISCID=910c7b0a
DTITLE=Phi Nhung - Co Le
DYEAR=1996
DGENRE=
TTITLE0=Co le
TTITLE1=Giac ngu tren tay
TTITLE2=Ru em
TTITLE3=Nhanh cay trung ca
TTITLE4=Con thuong rau dang moc sau he
TTITLE5=Nguoi em sau mong
TTITLE6=Tra lai thoi gian
TTITLE7=Con thuong goc bep chai he
TTITLE8=Nhung doi hoa sim
TTITLE9=Gai nha ngheo
EXTD=
EXTT0=
EXTT1=
EXTT2=
EXTT3=
EXTT4=
EXTT5=
EXTT6=
EXTT7=
EXTT8=
EXTT9=
PLAYORDER=
